<svg width="213" height="38" viewBox="0 0 213 38" fill="none" xmlns="http://www.w3.org/2000/svg">
<g clip-path="url(#clip0_108_28)">
<path d="M29.7312 29.1766C27.1797 26.5141 25.6266 22.8531 25.6266 18.8594C25.6266 14.8656 27.0687 11.2047 29.7312 8.54219C31.95 10.7609 33.3922 13.4234 33.8359 16.6406H59.3516C58.2422 7.32188 50.3656 0 40.3813 0C36.3875 0 32.7266 1.22031 29.7312 3.21719C26.7359 1.22031 23.075 0 19.0813 0C8.54219 0 0 8.43125 0 18.8594C0 29.2875 8.54219 37.7188 19.0813 37.7188C23.075 37.7188 26.7359 36.4984 29.7312 34.5016C32.8375 36.4984 36.4984 37.7188 40.3813 37.7188C50.2547 37.7188 58.2422 30.2859 59.3516 21.0781H33.725C33.2812 24.2953 31.95 26.8469 29.7312 29.1766ZM40.4922 3.99375C46.5938 3.99375 51.8078 7.65469 54.1375 12.8688H37.275C36.3875 10.3172 34.8344 7.87656 33.0594 5.87969C35.1672 4.65938 37.8297 3.99375 40.4922 3.99375ZM19.0813 33.725C10.7609 33.725 4.21562 27.0688 4.21562 18.8594C4.21562 10.7609 10.65 3.99375 19.0813 3.99375C21.8547 3.99375 24.4062 4.77031 26.5141 5.99063C23.4078 9.31875 21.4109 13.8672 21.4109 18.7484C21.4109 23.7406 23.4078 28.2891 26.5141 31.6172C24.2953 32.8375 21.7438 33.725 19.0813 33.725ZM54.1375 24.85C51.9187 30.2859 46.5938 33.725 40.4922 33.725C37.7188 33.725 35.1672 33.0594 33.0594 31.7281C34.8344 29.7313 36.3875 27.4016 37.275 24.85H54.1375ZM79.4312 16.8625C82.0937 16.8625 84.3125 15.8641 85.2 15.1984L84.4234 12.3141C82.8703 13.5344 81.3172 14.0891 79.6531 14.0891C76.9906 14.0891 75.4375 12.425 75.4375 9.65156C75.4375 7.21094 77.1016 5.54688 79.7641 5.54688C81.3172 5.54688 82.8703 5.99063 84.4234 7.1L85.2 4.21562C84.3125 3.43906 82.4266 2.55156 79.875 2.55156C75.1047 2.55156 71.7766 5.10312 71.7766 9.65156C71.7766 14.4219 74.7719 16.8625 79.4312 16.8625ZM123.362 14.3109H129.131L130.13 16.4188H133.791L127.689 2.88437H125.138L119.258 16.4188H122.364L123.362 14.3109ZM126.247 7.54375L128.133 11.7594H124.472L126.247 7.54375ZM164.298 14.3109L165.297 16.4188H168.958L162.856 2.88437H160.305L154.425 16.4188H157.531L158.419 14.3109H164.298ZM161.303 7.54375L163.189 11.7594H159.528L161.303 7.54375ZM137.784 16.5297H141.223V5.65781H145.661V2.99531H133.236V5.65781H137.784V16.5297ZM118.259 9.7625C118.259 5.10313 114.709 2.6625 110.605 2.6625C106.611 2.6625 102.95 5.10313 102.95 9.7625C102.95 14.4219 106.611 16.8625 110.605 16.8625C114.598 16.8625 118.259 14.4219 118.259 9.7625ZM110.605 14.2C108.053 14.2 106.611 12.5359 106.611 9.7625C106.611 7.1 108.164 5.325 110.605 5.325C113.156 5.325 114.598 7.1 114.598 9.7625C114.598 12.425 113.156 14.2 110.605 14.2ZM91.6344 11.6484L94.5187 11.3156L97.0703 16.4188H100.731L97.7359 10.65C99.7328 9.87344 100.731 8.65312 100.731 6.76719C100.731 4.4375 99.1781 2.88437 96.5156 2.88437H88.3062V16.4188H91.7453V11.6484H91.6344ZM91.6344 5.65781H95.4062C96.6266 5.65781 97.2922 6.10156 97.2922 6.98906C97.2922 8.20938 96.0719 8.65313 94.8516 8.76406L91.7453 9.09687V5.65781H91.6344ZM148.545 2.99531H151.984V16.5297H148.545V2.99531ZM194.141 30.175C194.141 31.5063 193.919 32.2828 192.588 32.2828C191.922 32.2828 191.145 31.95 190.147 31.2844L189.37 34.0578C190.369 34.7234 191.811 35.0563 192.698 35.0563C195.472 35.0563 197.58 33.725 197.58 30.7297V21.1891H194.141V30.175ZM204.014 32.0609V28.7328H209.45V26.1813H204.014V23.9625H211.669V21.3H200.686V34.8344H211.891V32.0609H204.014ZM125.581 27.1797H118.925V29.7312H122.364V31.95C121.477 32.1719 120.589 32.2828 119.702 32.2828C117.039 32.2828 115.486 30.5078 115.486 27.8453C115.486 25.2938 117.15 23.7406 119.812 23.7406C121.366 23.7406 122.919 24.1844 124.472 25.2937L125.248 22.4094C124.25 21.7438 122.475 20.8562 119.923 20.8562C115.264 20.8562 111.825 23.4078 111.825 27.9563C111.825 32.6156 114.82 35.0563 119.48 35.0563C122.031 35.0563 124.028 34.3906 125.47 33.6141H125.581V27.1797ZM156.977 25.1828C156.977 22.8531 155.423 21.3 152.761 21.3H144.552V34.8344H147.991V29.9531L150.875 29.6203L153.427 34.7234H157.088L154.092 28.9547C155.978 28.2891 156.977 26.9578 156.977 25.1828ZM151.097 26.9578L147.991 27.2906V23.8516H151.763C152.983 23.8516 153.648 24.2953 153.648 25.1828C153.648 26.4031 152.317 26.8469 151.097 26.9578ZM79.4312 20.9672C75.4375 20.9672 71.7766 23.4078 71.7766 28.0672C71.7766 32.7266 75.4375 35.1672 79.4312 35.1672C83.425 35.1672 87.0859 32.7266 87.0859 28.0672C87.0859 23.2969 83.5359 20.9672 79.4312 20.9672ZM79.4312 32.5047C76.8797 32.5047 75.4375 30.8406 75.4375 28.0672C75.4375 25.4047 76.9906 23.6297 79.4312 23.6297C81.9828 23.6297 83.425 25.4047 83.425 28.0672C83.425 30.7297 81.9828 32.5047 79.4312 32.5047ZM105.28 21.3H108.719V34.8344H105.28V21.3ZM95.5172 26.1813C93.5203 25.8484 93.1875 25.5156 93.1875 24.85C93.1875 24.2953 93.7422 23.7406 95.7391 23.7406C97.7359 23.7406 99.4 24.2953 100.62 25.2937L101.397 22.4094C100.398 21.7438 98.6234 20.9672 95.85 20.9672C91.8563 20.9672 89.8594 22.8531 89.8594 25.1828C89.8594 27.8453 91.7453 29.0656 96.1828 29.6203C98.1797 29.9531 98.6234 30.2859 98.6234 30.9516C98.6234 31.8391 97.7359 32.2828 95.5172 32.2828C93.8531 32.2828 92.5219 31.95 90.6359 30.8406L89.8594 33.725C91.5234 34.5016 93.1875 35.0563 95.6281 35.0563C99.4 35.0563 102.062 33.5031 102.062 30.5078C101.952 27.5125 99.9547 26.8469 95.5172 26.1813ZM164.298 21.3L158.419 34.8344H161.636L162.523 32.7266H168.292L169.291 34.8344H172.952L166.85 21.3H164.298ZM163.522 30.175L165.297 25.9594L167.183 30.175H163.522ZM138.228 29.1766C138.228 31.2844 137.452 32.3938 135.233 32.3938C133.125 32.3938 132.348 31.2844 132.348 29.1766V21.3H128.909V29.2875C128.909 33.2812 131.017 35.1672 135.344 35.1672C139.448 35.1672 141.334 33.0594 141.334 29.8422V21.3H138.339V29.1766H138.228ZM184.933 29.1766L177.722 21.3H174.838V34.8344H177.833V26.5141L185.377 34.8344H187.928V21.3H184.933V29.1766ZM172.175 6.2125H172.73C172.841 6.32344 172.952 6.43437 173.173 6.76719L173.284 7.1C173.506 7.43281 173.506 7.54375 173.617 7.65469H174.394C174.283 7.54375 174.061 7.32188 173.95 6.98906L173.728 6.54531C173.617 6.32344 173.506 6.10156 173.284 5.99063C173.728 5.87969 174.061 5.43594 174.061 4.99219C174.061 4.4375 173.728 3.99375 172.952 3.99375H171.509V7.54375H172.175V6.2125ZM172.175 4.54844H172.841C173.284 4.54844 173.506 4.77031 173.506 5.10312C173.506 5.43594 173.284 5.76875 172.841 5.76875H172.286V4.54844H172.175Z" fill="#004597"/>
<path d="M172.73 9.42969C174.727 9.42969 176.28 7.87656 176.28 5.87969C176.28 3.88281 174.727 2.32969 172.73 2.32969C170.733 2.32969 169.18 3.99375 169.18 5.87969C169.18 7.87656 170.733 9.42969 172.73 9.42969ZM172.73 2.88438C174.394 2.88438 175.725 4.21563 175.725 5.87969C175.725 7.54375 174.394 8.875 172.73 8.875C171.066 8.875 169.734 7.54375 169.734 5.87969C169.734 4.21563 171.066 2.88438 172.73 2.88438Z" fill="#004597"/>
</g>
<defs>
<clipPath id="clip0_108_28">
<rect width="213" height="37.7188" fill="white"/>
</clipPath>
</defs>
</svg>
