<svg width="65" height="65" viewBox="0 0 65 65" fill="none" xmlns="http://www.w3.org/2000/svg">
<circle cx="32.5" cy="32.5" r="32.5" transform="rotate(180 32.5 32.5)" fill="#D9D9D9"/>
<g clip-path="url(#clip0_3_86)">
<path d="M25.8181 22.2219C26.0026 22.0658 26.2358 21.9861 26.4731 21.9983C26.7103 22.0104 26.935 22.1135 27.1038 22.2877C27.2727 22.4619 27.374 22.6951 27.3881 22.9423C27.4023 23.1896 27.3285 23.4336 27.1807 23.6276L20.2715 30.832L43.0671 30.832C43.3211 30.832 43.5649 30.9365 43.7454 31.1229C43.9259 31.3092 44.0286 31.5623 44.0311 31.8272C44.0311 32.0938 43.9296 32.3495 43.7488 32.538C43.568 32.7266 43.3228 32.8325 43.0671 32.8325L20.2731 32.8325L27.1823 40.0218C27.3594 40.2122 27.4584 40.467 27.4584 40.7322C27.4584 40.9974 27.3594 41.2522 27.1823 41.4426C27.0934 41.537 26.9874 41.612 26.8705 41.6632C26.7535 41.7144 26.6279 41.7408 26.501 41.7408C26.3741 41.7408 26.2486 41.7144 26.1316 41.6632C26.0146 41.612 25.9086 41.537 25.8197 41.4426L17.2748 32.5359C17.0986 32.3481 17 32.0958 17 31.8331C17 31.5704 17.0986 31.3181 17.2748 31.1302L25.8181 22.2219Z" fill="white" stroke="white" stroke-width="0.6"/>
</g>
<defs>
<clipPath id="clip0_3_86">
<rect width="28" height="21" fill="white" transform="matrix(-1 0 0 -1 45 43)"/>
</clipPath>
</defs>
</svg>
