<svg width="65" height="65" viewBox="0 0 65 65" fill="none" xmlns="http://www.w3.org/2000/svg">
<circle cx="32.5" cy="32.5" r="32.5" fill="#D9D9D9"/>
<path d="M36.2131 41.5188C36.0287 41.675 35.7955 41.7546 35.5582 41.7424C35.3209 41.7303 35.0963 41.6272 34.9274 41.453C34.7585 41.2788 34.6573 41.0457 34.6431 40.7984C34.6289 40.5511 34.7028 40.3071 34.8506 40.1131L41.7598 32.9087L18.9642 32.9087C18.7102 32.9087 18.4664 32.8042 18.2859 32.6179C18.1053 32.4315 18.0026 32.1784 18.0001 31.9135C18.0001 31.6469 18.1017 31.3912 18.2825 31.2027C18.4633 31.0142 18.7085 30.9082 18.9642 30.9082L41.7582 30.9082L34.849 23.7189C34.6719 23.5285 34.5728 23.2737 34.5728 23.0085C34.5728 22.7433 34.6719 22.4885 34.849 22.2981C34.9378 22.2037 35.0438 22.1287 35.1608 22.0775C35.2778 22.0263 35.4034 21.9999 35.5302 21.9999C35.6571 21.9999 35.7827 22.0263 35.8997 22.0775C36.0167 22.1287 36.1227 22.2037 36.2115 22.2981L44.7564 31.2048C44.9326 31.3926 45.0312 31.6449 45.0312 31.9076C45.0312 32.1704 44.9326 32.4227 44.7564 32.6105L36.2131 41.5188Z" fill="white" stroke="white" stroke-width="0.6"/>
</svg>
